<svg version="1.1" xmlns="http://www.w3.org/2000/svg" viewBox="0 0 754 145" width="754" height="145">
  <!-- svg-source:excalidraw -->
  
  <defs>
    <style>
      @font-face {
        font-family: "Virgil";
        src: url("https://excalidraw.com/FG_Virgil.woff2");
      }
      @font-face {
        font-family: "Cascadia";
        src: url("https://excalidraw.com/Cascadia.woff2");
      }
    </style>
  </defs>
  <rect x="0" y="0" width="754" height="145" fill="#ffffff"></rect><g><g transform="translate(70.71351890512733 71.67106940574013) rotate(0 309.4782441480784 -0.28214202127418275)"><path d="M0.4889310322701932 -0.4101412855088711 C103.89494061892232 -0.6547173343598842, 516.2671279552083 -0.5331408105790614, 619.6700072012842 -0.2823868118226528 M-0.7135189051274211 -1.671069405740127 C102.5726244257049 -1.2296801320370288, 514.9937512627399 0.9405370520893486, 618.5487155183312 1.1067853631917388" stroke="#000000" stroke-width="1" fill="none"></path></g></g><g><g transform="translate(70 89.81690395250916) rotate(0 0.6879644320439411 -19.265676144338215)"><path d="M-0.2552769027650357 -0.8713733710348606 C-0.274359329789877 -7.465874953816334, 0.4552425540983676 -33.12000445102652, 0.3360067762434482 -39.816903952509165 M1.8115639939438553 1.2855516638327389 C1.6244420039188117 -5.066695501708114, -0.36937397395260635 -31.25442999959302, -0.43563512985594577 -38.18335327635519" stroke="#000000" stroke-width="1" fill="none"></path></g></g><g><g transform="translate(370.98845865297903 50.9584382725414) rotate(0 0.19564913841838916 20.362490174220852)"><path d="M-0.8951345287263393 0.5611638508737087 C-0.8807437501847744 7.085101497421663, -1.1872243247926235 32.82795126860341, -0.8597544752061367 39.59172732457519 M0.8357811143528671 -0.1898290727566927 C1.3097057628165931 6.46354358642983, 1.3958640357386318 34.316202472842605, 1.400828961683437 40.91480942119844" stroke="#000000" stroke-width="1" fill="none"></path></g></g><g><g transform="translate(210.98845865297915 50.9584382725414) rotate(0 0.10886290258724785 20.12727313433308)"><path d="M-0.7581070460379123 0.6147807039320468 C-0.9023436345160006 7.237084944794575, -0.10198450461029998 33.639311289538945, 0.07935950383543977 40.36260964050889 M1.0447480254527184 -0.10806337184272707 C0.6667659392114731 6.0853183436735225, -0.6091452384833246 31.8935265047693, -0.8270222202781587 38.43040495299734" stroke="#000000" stroke-width="1" fill="none"></path></g></g><g><g transform="translate(550.988458652979 50.9584382725414) rotate(0 0.45104721549432725 19.61040900924243)"><path d="M0.8334501944482324 0.2743362106382847 C0.8632500134408472 6.60806546981136, -0.6951791562139987 32.34028372739752, -0.7167762793600558 38.89221901074052 M-0.1881271828059108 -0.6272412241157144 C0.30929625234566616 5.736063644324119, 1.5362329178210348 32.96250947250364, 1.6188707103487103 39.84805924260058" stroke="#000000" stroke-width="1" fill="none"></path></g></g><g transform="translate(630 10) rotate(0 57 12.5)"><text x="57" y="18" font-family="Virgil, Segoe UI Emoji" font-size="20px" fill="#000000" text-anchor="middle" style="white-space: pre;" direction="ltr">Pure Native</text></g><g transform="translate(110 110) rotate(0 94 12.5)"><text x="94" y="18" font-family="Virgil, Segoe UI Emoji" font-size="20px" fill="#000000" text-anchor="middle" style="white-space: pre;" direction="ltr">Cordova/Phonegap</text></g><g><g transform="translate(690.988458652979 50) rotate(0 0.22030883291347436 19.882618342083873)"><path d="M-0.5714226521551609 0.05715781822800636 C-0.7990614928305149 6.76934624488155, -1.1158326424658298 34.17584886526068, -0.9349563159048557 40.72367495670915 M1.329441726123914 -0.9584382725413889 C1.4342712052818387 5.37201682630616, 1.5047363512869927 32.10174630774496, 1.286146154617891 38.981029560202735" stroke="#000000" stroke-width="1" fill="none"></path></g></g><g transform="translate(10 10) rotate(0 45 12.5)"><text x="45" y="18" font-family="Virgil, Segoe UI Emoji" font-size="20px" fill="#000000" text-anchor="middle" style="white-space: pre;" direction="ltr">Pure Web</text></g><g transform="translate(451 110) rotate(0 93 12.5)"><text x="93" y="18" font-family="Virgil, Segoe UI Emoji" font-size="20px" fill="#000000" text-anchor="middle" style="white-space: pre;" direction="ltr">"Compile" to Native</text></g><g transform="translate(361 10) rotate(0 14 12.5)"><text x="14" y="18" font-family="Virgil, Segoe UI Emoji" font-size="20px" fill="#000000" text-anchor="middle" style="white-space: pre;" direction="ltr">???</text></g></svg>